<?xml version="1.0" encoding="utf-8"?>
<!-- Generator: Adobe Illustrator 27.5.0, SVG Export Plug-In . SVG Version: 6.00 Build 0)  -->
<svg version="1.1" id="Laag_1" xmlns="http://www.w3.org/2000/svg" xmlns:xlink="http://www.w3.org/1999/xlink" x="0px" y="0px"
	 viewBox="0 0 1920 1080" style="enable-background:new 0 0 1920 1080;" xml:space="preserve">
<style type="text/css">
	.st0{opacity:0.1;}
	.st1{fill:#A3897F;}
	.st2{fill:none;stroke:#000000;stroke-width:5;}
</style>
<g>
	<g>
		<g>
			<path d="M927.9,633.8c18.8-8.1,37.6-16.2,56.4-24.3c16.3-6.6,66.3-28.2,62.8,8.6c-4.8,49.9-49.3,80.8-93,96.8
				c-20.8,7.5-41.6,15-62.4,22.5C904,703,916.1,668.4,927.9,633.8z M958.3,703.2c32.3-11.4,61.3-39.4,65.1-74.2
				c2.9-26.4-31.4-12.1-43.3-7.4c-11.2,4.7-22.3,9.5-33.5,14.2c-9.3,27.4-18.7,54.8-28.3,82.1C931.6,713.1,944.9,708.2,958.3,703.2z
				"/>
			<path d="M1097.7,561.3c35.5-14.7,71.2-28.9,107.1-42.3c-1.5,5.4-2.2,8.1-3.7,13.5c-28.5,10.4-56.8,21.4-84.9,32.6
				c-3.6,12.3-7.2,24.5-10.8,36.8c25.4-9.7,51-19.1,76.6-28.2c-1.5,5.3-2.3,8-3.8,13.3c-25.7,8.9-51.2,18.2-76.7,27.8
				c-4,13.4-8.1,26.8-12.2,40.2c28.4-10.1,56.9-19.8,85.6-29.1c-1.5,5.3-2.3,7.9-3.8,13.2c-36.3,11.6-72.3,23.9-108.2,36.5
				C1074.7,637.6,1086.3,599.5,1097.7,561.3z"/>
			<path d="M1212.1,599.1c9.1-4.2,13.6-6.3,22.6-10.4c-1.2,20.8,28,14.4,39.1,11.3c14.7-4.2,43.6-12.3,44.9-31.8
				c0.9-14.9-19.9-13-29.7-12c-6.5,0.5-9.7,0.8-16.2,1.5c-12.2,0.9-44,5.3-42.5-15.5c2.2-31.7,44.4-50.4,70.3-57.7
				c17.5-5,54.3-12.8,54,16.5c-9,3.5-13.5,5.3-22.5,8.9c0-19.2-22.7-16.1-34.8-12.2c-15.5,5-42.2,15.3-43.2,34.2
				c-0.6,12.7,20.6,10.4,28.7,9.3c6.4-0.6,9.6-0.9,16-1.4c14-0.7,44.9-3.2,43.4,19.4c-2.1,32.6-45.3,47.6-71.6,53.7
				C1253.6,616.9,1213.1,628,1212.1,599.1z"/>
			<path d="M1403.8,460.6c8.8-1.7,13.1-2.6,21.9-4.1c-10.3,43.3-20.7,86.5-31.3,129.7c-8.8,1.2-13.3,1.8-22.1,3.2
				C1383,546.5,1393.5,503.6,1403.8,460.6z"/>
			<path d="M1443.8,529.7c2.3-47.4,39.6-85.5,87.7-86.7c24.3-0.6,52.9,8.8,56.9,36.4c-8.2,1.4-12.3,2.2-20.6,3.8
				c-3.4-19.1-20.6-26.2-38.3-25.7c-38.5,1.1-61.2,34-62.3,70.2c-0.8,26.9,19,39.6,44.2,39.5c15.4-0.1,33-4.3,42.7-17.6
				c1.9-8.9,2.9-13.4,4.8-22.3c-14.1-0.8-28.1-1.2-42.2-1.3c1.3-5.8,1.9-8.7,3.2-14.5c21.1,0.1,42.1,1,63.1,2.9
				c-2.1,9.9-3.1,14.8-5.2,24.7c-3.3,14.6-5.5,29.3-6.2,44.2c-6.5-0.8-9.7-1.1-16.2-1.7c-0.6-5.6-0.9-11.4-0.8-17.3
				c-12.3,13.1-31.2,17.8-48.5,17.3C1474.5,580.9,1442.1,566.3,1443.8,529.7z"/>
			<path d="M1641.6,453.2c9.8,1.6,19.7,3.6,29.4,5.9c12.6,35.3,24.9,70.6,36.9,106.1c3.7,11.5,7.1,23.1,10.4,34.7
				c0.1,0,0.1,0,0.2,0.1c2.1-10.6,4.2-21.3,6.3-31.9c5.7-29,11.4-58,17-87c7.9,3.1,11.9,4.8,19.8,8.3c-8.8,46.5-17.8,93-26.9,139.5
				c-9.6-4.4-19.4-8.6-29.3-12.4c-12-35.7-24.3-71.4-36.9-106.9c-3.7-10.7-7.1-21.5-10.4-32.3c-0.1,0-0.1,0-0.2,0
				c-2.2,10.6-4.4,21.2-6.5,31.8c-5.9,28.4-11.8,56.8-17.8,85.2c-8.2-1.9-12.2-2.8-20.4-4.4C1622.7,544.3,1632.2,498.8,1641.6,453.2
				z"/>
		</g>
		<g>
			<path d="M12.2,660.5c15.7,17,31.9,33.4,48.7,49.3c12.5,11.6,57.7,43.9,52,61.2c-8.3,25.1-79.8-43-86.3-49.8
				C7.9,701.1-9.8,680.3-27,658.9C-14,660.5-0.9,661,12.2,660.5z M31,720.9c8.3,8.2,55.1,49.2,60.9,33.7
				c4.2-11.3-25.3-34.3-35.6-44.1c-9.9-9.4-19.5-19-28.9-28.9c-10.2,1-20.5,1.3-30.7,1.1C7.8,695.7,19.1,708.5,31,720.9z"/>
			<path d="M160.5,787.3c31,19.2,62.9,35.6,96.6,49.4c-1.7,1.6-2.6,2.4-4.3,4.1c-26.5-11.2-51.9-24-76.7-38.5
				c-4.9,3.3-7.3,4.9-12.2,8c22.4,14,45.2,26.6,69,38.1c-1.7,1.5-2.6,2.2-4.3,3.7c-23.8-11.8-46.6-24.8-69-39.1
				c-5.5,3.3-8.2,4.9-13.7,8c24.8,17.1,50.2,32.5,76.9,46.4c-1.7,1.4-2.6,2.2-4.3,3.6c-34.1-18.3-66.1-39.1-96.9-62.5
				C134.9,801.9,147.8,794.9,160.5,787.3z"/>
			<path d="M278.7,844.8c8.4,3,12.7,4.3,21.1,6.9c2.4,10.7,4.9,21.4,7.3,32.1c1.5,6.7,3,12.9,4.1,20c0.2,0.1,0.3,0.1,0.5,0.2
				c9.8-3.4,19.6-7,29.3-10.6c17-6.5,33.6-13.8,50-21.8c8.9,1.2,13.4,1.7,22.3,2.6c-29.5,15.7-59.5,28.9-91.3,39.3
				c-9.9-3-19.8-6.3-29.5-9.8C287.9,884.1,283.3,864.4,278.7,844.8z"/>
			<path d="M442.5,876.5c33.8,1.5,67.3,0.9,101-1.5c-1.7,3-2.5,4.6-4.2,7.6c-26.8,1.6-53.3,2.2-80.1,1.4
				c-4.7,7.6-7.1,11.3-11.9,18.8c24.1,1.5,48,1.9,72.1,1.4c-1.7,2.9-2.5,4.4-4.2,7.3c-24.1,0.2-48.1-0.4-72.2-2.2
				c-5.3,8.1-8,12.1-13.3,20c26.8,2.9,53.5,4.4,80.5,4.8c-1.7,2.9-2.5,4.3-4.2,7.2c-34.1-0.9-67.8-3.7-101.5-8.7
				C417.5,914.1,430.2,895.4,442.5,876.5z"/>
			<path d="M582.2,871.1c8.5-1,12.7-1.6,21.2-2.8c-10.8,21.5-21.7,42.8-32.9,64.1c23-1.6,45.9-3.8,68.8-6.6
				c-1.6,3.4-2.5,5.1-4.1,8.5c-30,3.4-60,5.8-90.2,6.8C557.7,917.9,570.1,894.6,582.2,871.1z"/>
			<path d="M663.2,900.4c5.6-37.8,60-56.7,90.4-64.6c17.3-4.5,65.3-15.4,61.4,18.1c-4.9,41.8-56.8,61.9-90.7,68.1
				C707.8,925.1,658.7,931,663.2,900.4z M726.8,913.3c27.3-6.1,60.3-22.1,65.3-53.5c3.8-23.5-28.4-18.4-40.8-14.9
				c-25.2,7.1-59.9,22-65.2,51.8C682.1,918.9,714.8,915.9,726.8,913.3z"/>
			<path d="M865.5,805.5c19.1-5.8,38.1-11.8,57.1-17.8c9.6-2.7,47.1-14.8,44.5,8.6c-3.1,27.8-39.2,43-62.5,49.1
				c-12.9,3.6-25.8,7.1-38.7,10.6c-4.6,12.3-9.2,24.7-13.9,37c-8.7,2.1-13.1,3.1-21.8,5.2C842.2,867.3,854,836.4,865.5,805.5z
				 M907,835.3c15.6-4.2,36.9-13.6,38.2-32c1-13.6-18.6-7.3-26-4.8c-12,3.7-23.9,7.4-35.9,11c-4.4,12.1-8.9,24.2-13.4,36.3
				C882.3,842.3,894.6,838.8,907,835.3z"/>
		</g>
		<g class="st0">
			<path class="st1" d="M537,819.4c34-4.2,67.6-10.2,101-17.5c-1.9,12.8-3.9,25.6-5.8,38.4c-19.1,3.5-38.1,6.6-57.3,9.2
				c-1.3,7.7-1.9,11.6-3.2,19.3c16.2-1.9,32.4-4.1,48.6-6.7c-1.8,12-3.7,23.9-5.5,35.9c-16.2,2.1-32.5,3.8-48.8,5.2
				c-1.7,10.1-2.5,15.1-4.2,25.1c20.2-1.1,40.4-3.1,60.5-5.3c-1.9,12.8-3.9,25.7-5.8,38.5c-35.2,2.7-70.3,3.9-105.6,3.1
				C519.6,916.3,528.3,867.8,537,819.4z"/>
			<path class="st1" d="M688.8,864.5c-12.2-22-24.6-43.9-37.2-65.7c17.4-4.2,34.7-8.6,52-13.4c3.2,6.1,4.7,9.2,7.9,15.5
				c3.8,7.6,7.4,15.1,11,22.9c0.2,0,0.3-0.1,0.4-0.1c5.8-10.1,11.5-20.1,17.3-30.1c5.2-9,7.9-13.6,13.1-22.8
				c16.8-5.3,33.6-10.7,50.3-16.3c-18.9,32.7-38.3,65.1-58.4,97.1c15.6,27.8,31,55.8,46.1,84c-18.2,3.6-36.4,7-54.6,10.2
				c-4.5-9.4-9.1-18.8-13.7-28.1c-4.1-8.4-7.8-16.3-11.4-24.4c-0.2,0-0.3,0.1-0.4,0.1c-6.5,10.7-13.1,21.2-19.8,31.7
				c-6.7,10.3-13.5,20.5-20.3,30.6c-17.3,2.1-34.7,4-52,5.6C643.2,929.7,666.4,897.4,688.8,864.5z"/>
			<path class="st1" d="M818.9,749.4c17.1-5.9,34.1-11.9,51.1-18c14.2-4.7,31.4-11.1,46.5-6.9c21.1,5.8,23.4,29.2,22.3,46.9
				c-1.4,22.3-12,44.3-28.7,60.1c-14.4,13.6-33.3,22.6-52.4,27.4c-2.9,0.8-4.4,1.2-7.3,1.9c-2.2,21.3-4.5,42.6-6.7,63.8
				c-15.2,3.3-30.4,6.5-45.6,9.6C805,872.7,811.9,811.1,818.9,749.4z M862.8,817.3c9.9-2.9,16.8-6.1,20.8-9.6
				c5.5-4.8,9.1-11.9,9.9-20.6c0.9-8.9-1.6-14.4-6.9-15.8c-3.9-1-9.3-0.3-20.6,3.4c-2.7,0.9-4.1,1.3-6.8,2.2
				c-1.5,14.2-3,28.5-4.5,42.7C857.9,818.8,859.6,818.3,862.8,817.3z"/>
			<path class="st1" d="M962.3,697.4c34.2-12.8,68.5-25.7,102.8-38.2c-1.3,17.5-2.6,35-3.9,52.4c-19.4,6.4-38.8,13-58.2,19.5
				c-0.9,10.7-1.3,16-2.2,26.7c16.4-5.3,32.9-10.5,49.4-15.7c-1.2,16.4-2.5,32.8-3.7,49.2c-16.5,4.7-33.1,9.5-49.6,14.2
				c-1,11.6-1.9,23.2-2.9,34.9c20.5-5.5,40.9-10.9,61.4-16.2c-1.3,17.5-2.6,35-3.9,52.5c-35.9,8.1-71.7,16.5-107.4,24.9
				C950.3,833.7,956.3,765.5,962.3,697.4z"/>
			<path class="st1" d="M1087.8,651c18.3-6.5,36.6-13,55-19.3c14.1-4.2,29.3-8.7,43.4-2.8c20.8,8.7,22.4,35.4,21.9,54.5
				c-0.7,26.5-11.9,53.3-32.7,70.9c12.4,30.3,24.6,60.8,36.5,91.3c-17.2,2.7-34.3,5.6-51.4,8.7c-9.9-26.7-19.9-53.3-30-79.8
				c-2.8,0.7-4.2,1.1-7,1.8c-1.9,28.8-3.8,57.6-5.7,86.4c-15.2,3.1-30.4,6.4-45.6,9.7C1077.3,798.5,1082.6,724.8,1087.8,651z
				 M1137.5,728.8c8.3-2.3,14.3-5.6,18-9.7c4.3-4.6,6.9-11.3,7.5-20c0.6-9.9-2.1-15.2-6.5-17c-3.5-1.5-8.7-1.2-19,2
				c-3.3,1-5,1.5-8.3,2.6c-1,15.1-2,30.1-3,45.2C1130.8,730.7,1133,730.1,1137.5,728.8z"/>
			<path class="st1" d="M1233,603.2c14.8-4.2,29.6-8.3,44.5-12.2c-4.1,82.4-8.1,164.9-12.2,247.3c-15.1,1.8-30.2,3.8-45.3,6
				C1224.4,763.9,1228.7,683.6,1233,603.2z"/>
			<path class="st1" d="M1302.1,584.9c33.5-7.8,67.1-14.3,101.2-19.2c-0.8,21.3-1.6,42.5-2.4,63.8c-19.1,2.1-38.2,4.6-57.2,7.5
				c-0.5,10.9-0.9,21.8-1.4,32.7c16.1-2.3,32.3-4.3,48.5-5.7c-0.8,19.9-1.5,39.9-2.3,59.8c-16.3,0.9-32.5,2.4-48.7,4.2
				c-0.6,14.2-1.2,28.4-1.8,42.6c20.1-1.6,40.2-2.9,60.3-3.3c-0.8,21.3-1.6,42.6-2.3,63.8c-35.3-0.2-70.5,1.5-105.7,4.6
				C1294.3,752,1298.2,668.5,1302.1,584.9z"/>
			<path class="st1" d="M1485.8,736.2c-7.4-20-14.7-40.1-21.9-60.2c-0.2,0.2-0.3,0.2-0.4,0.4c-0.5,23.3-1.1,46.6-1.8,69.8
				c-0.9,29.3-1.8,58.7-2.8,88c-14.3-1.2-28.5-2.1-42.8-2.8c3.1-89.5,6.3-179,9.4-268.5c13.6-1.5,27.3-2.6,41-3.4
				c12.9,33.4,25.4,66.9,37.7,100.5c7.6,20.8,14.9,41.6,21.9,62.6c0.2-0.1,0.3-0.2,0.4-0.3c0.4-24.1,0.9-48.2,1.5-72.3
				c0.8-30.4,1.6-60.7,2.4-91.1c13.9,0.5,27.7,1.5,41.5,3c-2.2,96.9-4.5,193.8-6.7,290.6c-13.7-3.4-27.4-6.5-41.2-9.2
				C1511.6,807.6,1498.8,771.8,1485.8,736.2z"/>
			<path class="st1" d="M1713.6,898.6c-13.9,6.2-31,2.1-44-3.9c-64.4-29.8-84.3-119.6-82.3-183.2c1.3-42.4,20.1-154.9,87.3-133.2
				c17.3,5.6,29.5,18.2,40.7,32.1c-0.4,29.2-0.8,58.4-1.1,87.6c-8.7-15.7-22.1-35.5-39.9-41.8c-35.3-12.5-42.9,44.7-43.7,65.6
				c-1.2,32.4,8,81.7,42,96c14,5.9,30.6,2.7,42.2-7.3C1714.3,839.8,1714,869.2,1713.6,898.6z"/>
			<path class="st1" d="M1736,606.1c33.3,15.4,64.6,33.5,94.8,54.3c-0.2,26.8-0.3,53.6-0.5,80.3c-17.4-12.7-35.1-24.6-53.4-35.7
				c-0.1,13.8-0.2,27.5-0.4,41.3c15.5,9.8,30.5,20,45.3,30.8c-0.2,25.1-0.3,50.3-0.5,75.4c-14.9-11.4-30-22.2-45.5-32.6
				c-0.2,17.9-0.3,35.9-0.5,53.8c19.5,13.3,38.1,27.7,56.3,42.7c-0.2,26.8-0.3,53.6-0.5,80.4c-31.2-27-63.9-51.4-99-73.2
				C1733.5,817.7,1734.7,711.9,1736,606.1z"/>
			<path class="st1" d="M1849.9,904c12.9,27.9,30.5,58.9,48.1,81.6c8.6,11,15-0.7,14.3-9.8c-2.1-24.3-17.1-48.6-29.6-70.8
				c-22.8-40.8-37.3-84.6-36.5-131.1c0.4-26.4,10.8-103.9,53.8-62.7c20.4,19.5,35.1,46,45.8,71.9c0,31.2,0,62.3,0,93.5
				c-11.4-28.2-24-61.4-45.6-83c-7.2-7.2-12.7-6-12.6,9.1c0.1,24,17.5,45.1,28.2,65.4c24.2,45.8,38.1,97.3,37.4,149.4
				c-0.2,17.5,1.9,53.7-15.4,65.7c-14.7,10.1-30.9-5.7-40.4-16.1c-19.4-21.3-35.2-47.1-47.9-73C1849.6,964.1,1849.8,934,1849.9,904z
				"/>
		</g>
		<g>
			<path class="st2" d="M754.7,684.8c6.1,11,12.2,22.1,18.2,33.2c22.5-6.9,44.8-14.1,67.2-21.4c0,0.1,0.1,0.2,0.1,0.3
				c-19.5,14.9-39.2,29.5-59.1,43.7c-6.4,1.9-9.6,2.8-16,4.6c-9,14.5-24.2,24.4-37.9,33.9c-29.2,17.9-73.6,38.6-108.2,28.2
				c-14.5-4.4-10.3-19.6-1.7-27.3c-13.4,1.7-27,3.4-40.3-0.8c-30-8,18.6-38.4,24.1-41.5c24.3-13.9,60.5-32.1,90.5-26.1
				c13.6,2.7,9.5,17.5,3.6,25.2c-1.1,1.6-1.6,2.4-2.7,4c9.3-2.4,18.5-4.9,27.7-7.4c-3.9-6.9-5.8-10.3-9.7-17.1
				C725.4,706,740.1,695.5,754.7,684.8z M647.3,749.3c2.6-4.5,1.5-6.4-1.2-7.2c-4.1-1.2-11.3,0.2-17.6,3.9c-6.6,3.8-6.9,6.9-2.8,8.2
				c2.7,0.9,7.1,0.5,14.9-1.1c2.1-0.4,3.1-0.6,5.2-1.1C646.3,751,646.7,750.4,647.3,749.3z M665.9,770.3c-5.1,5.3-2.6,7.9,0.5,8.9
				c11.8,2.9,22.7-3.6,32.7-8.8c7.1-4.5,10.6-8.1,11.8-10.7C696,763.4,681,766.9,665.9,770.3z"/>
		</g>
		<g id="_x3C_Radiale_herhaling_x3E__00000157276625260457295640000001049057839577784457_">
			<path d="M509.2,847.5c-4.4-0.8-5.6-3-2.6-5c3-2,9-3.1,13.4-2.4s5.6,2.9,2.6,5C519.7,847.2,513.7,848.2,509.2,847.5z"/>
		</g>
		<g id="_x3C_Radiale_herhaling_x3E__00000129200684797749047640000005780253730226364042_">
			<path d="M469.1,821.4c-3-1.5-1.8-3.8,2.6-5.2c4.4-1.4,10.3-1.4,13.3,0c3,1.4,1.8,3.8-2.6,5.3C478,823,472,822.9,469.1,821.4z"/>
		</g>
		<g id="_x3C_Radiale_herhaling_x3E__00000122002471140823281570000017035444522467480987_">
			<path d="M460.2,790.4c-1.1-1.8,2.2-3.9,7.3-4.8c5.1-0.9,10.2-0.1,11.3,1.7c1.1,1.8-2.2,4.1-7.3,4.9
				C466.3,793.1,461.3,792.2,460.2,790.4z"/>
		</g>
		<g id="_x3C_Radiale_herhaling_x3E__00000084516762447752504620000003514325579584982411_">
			<path d="M483.2,757.6c0.9-2.1,5.8-4,11-4.5c5.2-0.4,8.7,0.9,7.8,3c-0.9,2.1-5.8,4.2-11,4.6S482.3,759.7,483.2,757.6z"/>
		</g>
		<g id="_x3C_Radiale_herhaling_x3E__00000084504798183516668590000017950962772923435660_">
			<path d="M534.8,722.8c2.7-2.4,8.6-4.3,13.1-4.3s5.9,1.9,3.2,4.4c-2.7,2.4-8.6,4.4-13.1,4.3S532,725.1,534.8,722.8z"/>
		</g>
		<g id="_x3C_Radiale_herhaling_x3E__00000062177187952265333540000001982905916601939891_">
			<path d="M607.7,685.3c4.2-2.7,10.2-4.4,13.4-3.7c3.2,0.7,2.4,3.4-1.9,6.2c-4.2,2.7-10.2,4.3-13.4,3.6
				C602.6,690.6,603.4,687.9,607.7,685.3z"/>
		</g>
		<g id="_x3C_Radiale_herhaling_x3E__00000078744123549219107680000009931192212025556110_">
			<path d="M691.8,648.3c5.1-2.7,10.4-3.6,11.8-2c1.4,1.7-1.6,5.3-6.7,8c-5.1,2.7-10.4,3.5-11.8,1.9
				C683.7,654.5,686.7,651,691.8,648.3z"/>
		</g>
		<g id="_x3C_Radiale_herhaling_x3E__00000010990456594903732700000009931457434938661293_">
			<path d="M775.6,619.6c5.3-2.2,9.2-1.8,8.6,1c-0.6,2.7-5.3,6.8-10.6,8.9c-5.3,2.2-9.2,1.7-8.6-1
				C765.6,625.8,770.3,621.8,775.6,619.6z"/>
		</g>
		<g id="_x3C_Radiale_herhaling_x3E__00000175311036276211788480000000094722742756507567_">
			<path d="M847.2,608.7c4.8-1.1,6.6,1,4.1,4.5s-8.4,7.2-13.1,8.2c-4.8,1-6.6-1-4.1-4.5C836.6,613.4,842.5,609.7,847.2,608.7z"/>
		</g>
	</g>
</g>
</svg>
